<?xml version="1.0" encoding="utf-8"?>
<svg xmlns="http://www.w3.org/2000/svg" xmlns:xlink="http://www.w3.org/1999/xlink" width="600" height="400" viewBox="0 0 2400 1600">
<defs>
  <clipPath id="clip6400">
    <rect x="0" y="0" width="2400" height="1600"/>
  </clipPath>
</defs>
<polygon clip-path="url(#clip6400)" points="
0,1600 2400,1600 2400,0 0,0 
  " fill="#ffffff" fill-rule="evenodd" fill-opacity="1"/>
<defs>
  <clipPath id="clip6401">
    <rect x="480" y="0" width="1681" height="1600"/>
  </clipPath>
</defs>
<polygon clip-path="url(#clip6400)" points="
113.754,1425.62 2352.76,1425.62 2352.76,121.675 113.754,121.675 
  " fill="#ffffff" fill-rule="evenodd" fill-opacity="1"/>
<defs>
  <clipPath id="clip6402">
    <rect x="113" y="121" width="2240" height="1305"/>
  </clipPath>
</defs>
<polyline clip-path="url(#clip6402)" style="stroke:#000000; stroke-width:2; stroke-opacity:0.1; fill:none" points="
  113.754,1425.62 113.754,121.675 
  "/>
<polyline clip-path="url(#clip6402)" style="stroke:#000000; stroke-width:2; stroke-opacity:0.1; fill:none" points="
  561.555,1425.62 561.555,121.675 
  "/>
<polyline clip-path="url(#clip6402)" style="stroke:#000000; stroke-width:2; stroke-opacity:0.1; fill:none" points="
  1009.36,1425.62 1009.36,121.675 
  "/>
<polyline clip-path="url(#clip6402)" style="stroke:#000000; stroke-width:2; stroke-opacity:0.1; fill:none" points="
  1457.16,1425.62 1457.16,121.675 
  "/>
<polyline clip-path="url(#clip6402)" style="stroke:#000000; stroke-width:2; stroke-opacity:0.1; fill:none" points="
  1904.96,1425.62 1904.96,121.675 
  "/>
<polyline clip-path="url(#clip6402)" style="stroke:#000000; stroke-width:2; stroke-opacity:0.1; fill:none" points="
  2352.76,1425.62 2352.76,121.675 
  "/>
<polyline clip-path="url(#clip6402)" style="stroke:#000000; stroke-width:2; stroke-opacity:0.1; fill:none" points="
  113.754,1388.71 2352.76,1388.71 
  "/>
<polyline clip-path="url(#clip6402)" style="stroke:#000000; stroke-width:2; stroke-opacity:0.1; fill:none" points="
  113.754,1086.26 2352.76,1086.26 
  "/>
<polyline clip-path="url(#clip6402)" style="stroke:#000000; stroke-width:2; stroke-opacity:0.1; fill:none" points="
  113.754,783.809 2352.76,783.809 
  "/>
<polyline clip-path="url(#clip6402)" style="stroke:#000000; stroke-width:2; stroke-opacity:0.1; fill:none" points="
  113.754,481.356 2352.76,481.356 
  "/>
<polyline clip-path="url(#clip6402)" style="stroke:#000000; stroke-width:2; stroke-opacity:0.1; fill:none" points="
  113.754,178.903 2352.76,178.903 
  "/>
<polyline clip-path="url(#clip6400)" style="stroke:#000000; stroke-width:4; stroke-opacity:1; fill:none" points="
  113.754,1425.62 2352.76,1425.62 
  "/>
<polyline clip-path="url(#clip6400)" style="stroke:#000000; stroke-width:4; stroke-opacity:1; fill:none" points="
  113.754,1425.62 113.754,121.675 
  "/>
<polyline clip-path="url(#clip6400)" style="stroke:#000000; stroke-width:4; stroke-opacity:1; fill:none" points="
  113.754,1425.62 113.754,1406.06 
  "/>
<polyline clip-path="url(#clip6400)" style="stroke:#000000; stroke-width:4; stroke-opacity:1; fill:none" points="
  561.555,1425.62 561.555,1406.06 
  "/>
<polyline clip-path="url(#clip6400)" style="stroke:#000000; stroke-width:4; stroke-opacity:1; fill:none" points="
  1009.36,1425.62 1009.36,1406.06 
  "/>
<polyline clip-path="url(#clip6400)" style="stroke:#000000; stroke-width:4; stroke-opacity:1; fill:none" points="
  1457.16,1425.62 1457.16,1406.06 
  "/>
<polyline clip-path="url(#clip6400)" style="stroke:#000000; stroke-width:4; stroke-opacity:1; fill:none" points="
  1904.96,1425.62 1904.96,1406.06 
  "/>
<polyline clip-path="url(#clip6400)" style="stroke:#000000; stroke-width:4; stroke-opacity:1; fill:none" points="
  2352.76,1425.62 2352.76,1406.06 
  "/>
<polyline clip-path="url(#clip6400)" style="stroke:#000000; stroke-width:4; stroke-opacity:1; fill:none" points="
  113.754,1388.71 147.339,1388.71 
  "/>
<polyline clip-path="url(#clip6400)" style="stroke:#000000; stroke-width:4; stroke-opacity:1; fill:none" points="
  113.754,1086.26 147.339,1086.26 
  "/>
<polyline clip-path="url(#clip6400)" style="stroke:#000000; stroke-width:4; stroke-opacity:1; fill:none" points="
  113.754,783.809 147.339,783.809 
  "/>
<polyline clip-path="url(#clip6400)" style="stroke:#000000; stroke-width:4; stroke-opacity:1; fill:none" points="
  113.754,481.356 147.339,481.356 
  "/>
<polyline clip-path="url(#clip6400)" style="stroke:#000000; stroke-width:4; stroke-opacity:1; fill:none" points="
  113.754,178.903 147.339,178.903 
  "/>
<g clip-path="url(#clip6400)">
<text style="fill:#000000; fill-opacity:1; font-family:Arial,Helvetica Neue,Helvetica,sans-serif; font-size:48px; text-anchor:middle;" transform="rotate(0, 113.754, 1479.62)" x="113.754" y="1479.62">0</text>
</g>
<g clip-path="url(#clip6400)">
<text style="fill:#000000; fill-opacity:1; font-family:Arial,Helvetica Neue,Helvetica,sans-serif; font-size:48px; text-anchor:middle;" transform="rotate(0, 561.555, 1479.62)" x="561.555" y="1479.62">2</text>
</g>
<g clip-path="url(#clip6400)">
<text style="fill:#000000; fill-opacity:1; font-family:Arial,Helvetica Neue,Helvetica,sans-serif; font-size:48px; text-anchor:middle;" transform="rotate(0, 1009.36, 1479.62)" x="1009.36" y="1479.62">4</text>
</g>
<g clip-path="url(#clip6400)">
<text style="fill:#000000; fill-opacity:1; font-family:Arial,Helvetica Neue,Helvetica,sans-serif; font-size:48px; text-anchor:middle;" transform="rotate(0, 1457.16, 1479.62)" x="1457.16" y="1479.62">6</text>
</g>
<g clip-path="url(#clip6400)">
<text style="fill:#000000; fill-opacity:1; font-family:Arial,Helvetica Neue,Helvetica,sans-serif; font-size:48px; text-anchor:middle;" transform="rotate(0, 1904.96, 1479.62)" x="1904.96" y="1479.62">8</text>
</g>
<g clip-path="url(#clip6400)">
<text style="fill:#000000; fill-opacity:1; font-family:Arial,Helvetica Neue,Helvetica,sans-serif; font-size:48px; text-anchor:middle;" transform="rotate(0, 2352.76, 1479.62)" x="2352.76" y="1479.62">10</text>
</g>
<g clip-path="url(#clip6400)">
<text style="fill:#000000; fill-opacity:1; font-family:Arial,Helvetica Neue,Helvetica,sans-serif; font-size:48px; text-anchor:end;" transform="rotate(0, 89.7545, 1406.21)" x="89.7545" y="1406.21">0</text>
</g>
<g clip-path="url(#clip6400)">
<text style="fill:#000000; fill-opacity:1; font-family:Arial,Helvetica Neue,Helvetica,sans-serif; font-size:48px; text-anchor:end;" transform="rotate(0, 89.7545, 1103.76)" x="89.7545" y="1103.76">2</text>
</g>
<g clip-path="url(#clip6400)">
<text style="fill:#000000; fill-opacity:1; font-family:Arial,Helvetica Neue,Helvetica,sans-serif; font-size:48px; text-anchor:end;" transform="rotate(0, 89.7545, 801.309)" x="89.7545" y="801.309">4</text>
</g>
<g clip-path="url(#clip6400)">
<text style="fill:#000000; fill-opacity:1; font-family:Arial,Helvetica Neue,Helvetica,sans-serif; font-size:48px; text-anchor:end;" transform="rotate(0, 89.7545, 498.856)" x="89.7545" y="498.856">6</text>
</g>
<g clip-path="url(#clip6400)">
<text style="fill:#000000; fill-opacity:1; font-family:Arial,Helvetica Neue,Helvetica,sans-serif; font-size:48px; text-anchor:end;" transform="rotate(0, 89.7545, 196.403)" x="89.7545" y="196.403">8</text>
</g>
<polyline clip-path="url(#clip6402)" style="stroke:#000000; stroke-width:4; stroke-opacity:1; fill:none" points="
  113.754,121.675 2352.76,121.675 
  "/>
<polyline clip-path="url(#clip6402)" style="stroke:#000000; stroke-width:4; stroke-opacity:1; fill:none" points="
  2352.76,1425.62 2352.76,121.675 
  "/>
<g clip-path="url(#clip6400)">
<text style="fill:#000000; fill-opacity:1; font-family:Arial,Helvetica Neue,Helvetica,sans-serif; font-size:84px; text-anchor:middle;" transform="rotate(0, 1233.26, 73.2)" x="1233.26" y="73.2">ODE Solution</text>
</g>
<g clip-path="url(#clip6400)">
<text style="fill:#000000; fill-opacity:1; font-family:Arial,Helvetica Neue,Helvetica,sans-serif; font-size:66px; text-anchor:middle;" transform="rotate(0, 1233.26, 1559.48)" x="1233.26" y="1559.48">t</text>
</g>
<polyline clip-path="url(#clip6402)" style="stroke:#009af9; stroke-width:12; stroke-opacity:1; fill:none" points="
  113.754,1388.71 115.996,1373.65 118.237,1358.74 120.478,1343.98 122.719,1329.36 124.961,1314.89 127.202,1300.57 129.443,1286.39 131.684,1272.35 133.926,1258.46 
  136.167,1244.71 138.408,1231.09 140.649,1217.61 142.891,1204.27 145.132,1191.07 147.373,1178 149.614,1165.06 151.856,1152.26 154.097,1139.59 156.338,1127.05 
  158.579,1114.63 160.821,1102.35 163.062,1090.19 165.303,1078.16 167.544,1066.25 169.786,1054.47 172.027,1042.81 174.268,1031.27 176.509,1019.85 178.751,1008.55 
  180.992,997.368 183.233,986.305 185.474,975.359 187.715,964.528 189.957,953.812 192.198,943.21 194.439,932.72 196.68,922.342 198.922,912.075 201.163,901.918 
  203.404,891.87 205.645,881.93 207.887,872.097 210.128,862.37 212.369,852.748 214.61,843.231 216.852,833.817 219.093,824.506 221.334,815.296 223.575,806.188 
  225.817,797.179 228.058,788.27 230.299,779.459 232.54,770.745 234.782,762.128 237.023,753.607 239.264,745.181 241.505,736.849 243.747,728.61 245.988,720.464 
  248.229,712.41 250.47,704.447 252.712,696.574 254.953,688.79 257.194,681.095 259.435,673.489 261.676,665.969 263.918,658.536 266.159,651.188 268.4,643.925 
  270.641,636.747 272.883,629.652 275.124,622.64 277.365,615.71 279.606,608.861 281.848,602.093 284.089,595.405 286.33,588.796 288.571,582.266 290.813,575.814 
  293.054,569.439 295.295,563.14 297.536,556.917 299.778,550.77 302.019,544.697 304.26,538.698 306.501,532.773 308.743,526.92 310.984,521.139 313.225,515.429 
  315.466,509.79 317.708,504.222 319.949,498.723 322.19,493.293 324.431,487.931 326.673,482.637 328.914,477.411 331.155,472.251 333.396,467.157 335.637,462.128 
  337.879,457.164 340.12,452.265 342.361,447.429 344.602,442.657 346.844,437.947 349.085,433.3 351.326,428.713 353.567,424.188 355.809,419.724 358.05,415.319 
  360.291,410.973 362.532,406.687 364.774,402.459 367.015,398.289 369.256,394.176 371.497,390.119 373.739,386.12 375.98,382.176 378.221,378.287 380.462,374.453 
  382.704,370.674 384.945,366.948 387.186,363.276 389.427,359.657 391.669,356.09 393.91,352.575 396.151,349.112 398.392,345.699 400.634,342.338 402.875,339.026 
  405.116,335.764 407.357,332.552 409.598,329.388 411.84,326.273 414.081,323.205 416.322,320.186 418.563,317.213 420.805,314.287 423.046,311.407 425.287,308.574 
  427.528,305.785 429.77,303.042 432.011,300.344 434.252,297.689 436.493,295.079 438.735,292.512 440.976,289.988 443.217,287.507 445.458,285.068 447.7,282.671 
  449.941,280.315 452.182,278.001 454.423,275.728 456.665,273.494 458.906,271.301 461.147,269.148 463.388,267.034 465.63,264.959 467.871,262.922 470.112,260.924 
  472.353,258.964 474.595,257.041 476.836,255.155 479.077,253.306 481.318,251.494 483.56,249.718 485.801,247.978 488.042,246.273 490.283,244.603 492.524,242.969 
  494.766,241.369 497.007,239.803 499.248,238.271 501.489,236.772 503.731,235.307 505.972,233.875 508.213,232.476 510.454,231.108 512.696,229.773 514.937,228.47 
  517.178,227.198 519.419,225.957 521.661,224.747 523.902,223.568 526.143,222.419 528.384,221.3 530.626,220.211 532.867,219.151 535.108,218.121 537.349,217.12 
  539.591,216.147 541.832,215.202 544.073,214.286 546.314,213.398 548.556,212.537 550.797,211.704 553.038,210.898 555.279,210.118 557.521,209.365 559.762,208.639 
  562.003,207.938 564.244,207.264 566.485,206.615 568.727,205.991 570.968,205.393 573.209,204.819 575.45,204.27 577.692,203.745 579.933,203.245 582.174,202.768 
  584.415,202.315 586.657,201.886 588.898,201.48 591.139,201.096 593.38,200.736 595.622,200.398 597.863,200.082 600.104,199.789 602.345,199.517 604.587,199.267 
  606.828,199.039 609.069,198.831 611.31,198.645 613.552,198.48 615.793,198.335 618.034,198.211 620.275,198.107 622.517,198.022 624.758,197.958 626.999,197.913 
  629.24,197.888 631.482,197.882 633.723,197.895 635.964,197.927 638.205,197.978 640.446,198.047 642.688,198.134 644.929,198.239 647.17,198.362 649.411,198.503 
  651.653,198.662 653.894,198.838 656.135,199.031 658.376,199.241 660.618,199.468 662.859,199.711 665.1,199.971 667.341,200.248 669.583,200.541 671.824,200.849 
  674.065,201.174 676.306,201.514 678.548,201.87 680.789,202.242 683.03,202.628 685.271,203.03 687.513,203.447 689.754,203.878 691.995,204.324 694.236,204.785 
  696.478,205.259 698.719,205.748 700.96,206.251 703.201,206.768 705.443,207.299 707.684,207.843 709.925,208.401 712.166,208.972 714.408,209.556 716.649,210.153 
  718.89,210.763 721.131,211.386 723.372,212.021 725.614,212.669 727.855,213.329 730.096,214.001 732.337,214.686 734.579,215.382 736.82,216.09 739.061,216.81 
  741.302,217.541 743.544,218.284 745.785,219.038 748.026,219.803 750.267,220.579 752.509,221.366 754.75,222.164 756.991,222.973 759.232,223.792 761.474,224.621 
  763.715,225.461 765.956,226.311 768.197,227.171 770.439,228.041 772.68,228.921 774.921,229.81 777.162,230.71 779.404,231.618 781.645,232.536 783.886,233.464 
  786.127,234.4 788.369,235.346 790.61,236.3 792.851,237.264 795.092,238.236 797.333,239.217 799.575,240.206 801.816,241.204 804.057,242.21 806.298,243.224 
  808.54,244.247 810.781,245.277 813.022,246.316 815.263,247.362 817.505,248.416 819.746,249.478 821.987,250.547 824.228,251.624 826.47,252.708 828.711,253.799 
  830.952,254.898 833.193,256.004 835.435,257.117 837.676,258.237 839.917,259.363 842.158,260.497 844.4,261.637 846.641,262.784 848.882,263.938 851.123,265.097 
  853.365,266.264 855.606,267.436 857.847,268.615 860.088,269.8 862.33,270.991 864.571,272.188 866.812,273.391 869.053,274.6 871.294,275.815 873.536,277.035 
  875.777,278.261 878.018,279.492 880.259,280.729 882.501,281.971 884.742,283.219 886.983,284.471 889.224,285.729 891.466,286.992 893.707,288.26 895.948,289.533 
  898.189,290.811 900.431,292.094 902.672,293.381 904.913,294.673 907.154,295.97 909.396,297.271 911.637,298.577 913.878,299.887 916.119,301.201 918.361,302.52 
  920.602,303.842 922.843,305.169 925.084,306.5 927.326,307.835 929.567,309.174 931.808,310.517 934.049,311.864 936.291,313.215 938.532,314.569 940.773,315.927 
  943.014,317.288 945.256,318.653 947.497,320.021 949.738,321.393 951.979,322.768 954.22,324.147 956.462,325.528 958.703,326.913 960.944,328.301 963.185,329.693 
  965.427,331.087 967.668,332.484 969.909,333.884 972.15,335.287 974.392,336.692 976.633,338.101 978.874,339.512 981.115,340.926 983.357,342.342 985.598,343.761 
  987.839,345.183 990.08,346.607 992.322,348.033 994.563,349.462 996.804,350.893 999.045,352.326 1001.29,353.762 1003.53,355.199 1005.77,356.639 1008.01,358.081 
  1010.25,359.525 1012.49,360.971 1014.73,362.419 1016.98,363.869 1019.22,365.321 1021.46,366.775 1023.7,368.231 1025.94,369.688 1028.18,371.147 1030.42,372.608 
  1032.66,374.07 1034.91,375.534 1037.15,377 1039.39,378.467 1041.63,379.936 1043.87,381.406 1046.11,382.878 1048.35,384.351 1050.59,385.825 1052.84,387.301 
  1055.08,388.778 1057.32,390.256 1059.56,391.736 1061.8,393.216 1064.04,394.698 1066.28,396.181 1068.52,397.665 1070.77,399.15 1073.01,400.636 1075.25,402.123 
  1077.49,403.611 1079.73,405.1 1081.97,406.59 1084.21,408.081 1086.45,409.572 1088.7,411.064 1090.94,412.557 1093.18,414.051 1095.42,415.545 1097.66,417.04 
  1099.9,418.536 1102.14,420.032 1104.38,421.529 1106.62,423.027 1108.87,424.524 1111.11,426.023 1113.35,427.521 1115.59,429.021 1117.83,430.52 1120.07,432.02 
  1122.31,433.52 1124.55,435.021 1126.8,436.522 1129.04,438.023 1131.28,439.524 1133.52,441.026 1135.76,442.527 1138,444.029 1140.24,445.531 1142.48,447.033 
  1144.73,448.535 1146.97,450.037 1149.21,451.539 1151.45,453.041 1153.69,454.543 1155.93,456.045 1158.17,457.547 1160.41,459.049 1162.66,460.551 1164.9,462.052 
  1167.14,463.553 1169.38,465.055 1171.62,466.555 1173.86,468.056 1176.1,469.556 1178.34,471.056 1180.59,472.556 1182.83,474.056 1185.07,475.555 1187.31,477.053 
  1189.55,478.552 1191.79,480.05 1194.03,481.547 1196.27,483.044 1198.52,484.541 1200.76,486.037 1203,487.532 1205.24,489.027 1207.48,490.522 1209.72,492.015 
  1211.96,493.509 1214.2,495.001 1216.45,496.493 1218.69,497.985 1220.93,499.475 1223.17,500.966 1225.41,502.455 1227.65,503.944 1229.89,505.432 1232.13,506.919 
  1234.38,508.405 1236.62,509.891 1238.86,511.376 1241.1,512.86 1243.34,514.343 1245.58,515.826 1247.82,517.307 1250.06,518.788 1252.31,520.268 1254.55,521.747 
  1256.79,523.225 1259.03,524.703 1261.27,526.179 1263.51,527.654 1265.75,529.129 1267.99,530.602 1270.24,532.075 1272.48,533.546 1274.72,535.016 1276.96,536.486 
  1279.2,537.954 1281.44,539.422 1283.68,540.888 1285.92,542.353 1288.17,543.817 1290.41,545.28 1292.65,546.742 1294.89,548.203 1297.13,549.663 1299.37,551.121 
  1301.61,552.579 1303.85,554.035 1306.1,555.49 1308.34,556.944 1310.58,558.396 1312.82,559.848 1315.06,561.298 1317.3,562.747 1319.54,564.194 1321.78,565.641 
  1324.03,567.086 1326.27,568.53 1328.51,569.973 1330.75,571.414 1332.99,572.854 1335.23,574.292 1337.47,575.73 1339.71,577.166 1341.96,578.6 1344.2,580.033 
  1346.44,581.465 1348.68,582.896 1350.92,584.325 1353.16,585.753 1355.4,587.179 1357.64,588.604 1359.89,590.027 1362.13,591.449 1364.37,592.87 1366.61,594.289 
  1368.85,595.706 1371.09,597.123 1373.33,598.537 1375.57,599.951 1377.82,601.362 1380.06,602.772 1382.3,604.181 1384.54,605.588 1386.78,606.994 1389.02,608.398 
  1391.26,609.801 1393.5,611.202 1395.75,612.601 1397.99,613.999 1400.23,615.395 1402.47,616.79 1404.71,618.183 1406.95,619.575 1409.19,620.965 1411.43,622.353 
  1413.68,623.74 1415.92,625.125 1418.16,626.509 1420.4,627.89 1422.64,629.271 1424.88,630.649 1427.12,632.026 1429.36,633.402 1431.61,634.775 1433.85,636.147 
  1436.09,637.518 1438.33,638.887 1440.57,640.254 1442.81,641.619 1445.05,642.983 1447.29,644.345 1449.54,645.705 1451.78,647.063 1454.02,648.42 1456.26,649.776 
  1458.5,651.129 1460.74,652.481 1462.98,653.831 1465.22,655.179 1467.47,656.526 1469.71,657.871 1471.95,659.214 1474.19,660.555 1476.43,661.895 1478.67,663.233 
  1480.91,664.57 1483.15,665.904 1485.39,667.237 1487.64,668.568 1489.88,669.898 1492.12,671.226 1494.36,672.552 1496.6,673.876 1498.84,675.198 1501.08,676.519 
  1503.32,677.838 1505.57,679.155 1507.81,680.471 1510.05,681.784 1512.29,683.096 1514.53,684.406 1516.77,685.714 1519.01,687.021 1521.25,688.326 1523.5,689.629 
  1525.74,690.93 1527.98,692.229 1530.22,693.526 1532.46,694.822 1534.7,696.116 1536.94,697.408 1539.18,698.698 1541.43,699.986 1543.67,701.273 1545.91,702.558 
  1548.15,703.84 1550.39,705.121 1552.63,706.4 1554.87,707.678 1557.11,708.953 1559.36,710.227 1561.6,711.498 1563.84,712.768 1566.08,714.036 1568.32,715.302 
  1570.56,716.567 1572.8,717.829 1575.04,719.09 1577.29,720.348 1579.53,721.605 1581.77,722.86 1584.01,724.113 1586.25,725.364 1588.49,726.613 1590.73,727.86 
  1592.97,729.106 1595.22,730.349 1597.46,731.591 1599.7,732.83 1601.94,734.068 1604.18,735.304 1606.42,736.538 1608.66,737.77 1610.9,739 1613.15,740.229 
  1615.39,741.455 1617.63,742.68 1619.87,743.902 1622.11,745.123 1624.35,746.341 1626.59,747.558 1628.83,748.773 1631.08,749.986 1633.32,751.197 1635.56,752.406 
  1637.8,753.613 1640.04,754.819 1642.28,756.022 1644.52,757.223 1646.76,758.423 1649.01,759.62 1651.25,760.816 1653.49,762.01 1655.73,763.202 1657.97,764.392 
  1660.21,765.58 1662.45,766.766 1664.69,767.95 1666.94,769.132 1669.18,770.312 1671.42,771.49 1673.66,772.667 1675.9,773.841 1678.14,775.014 1680.38,776.185 
  1682.62,777.353 1684.87,778.52 1687.11,779.685 1689.35,780.848 1691.59,782.009 1693.83,783.168 1696.07,784.325 1698.31,785.48 1700.55,786.634 1702.8,787.785 
  1705.04,788.935 1707.28,790.082 1709.52,791.228 1711.76,792.372 1714,793.514 1716.24,794.654 1718.48,795.792 1720.73,796.928 1722.97,798.062 1725.21,799.195 
  1727.45,800.325 1729.69,801.454 1731.93,802.58 1734.17,803.705 1736.41,804.828 1738.66,805.949 1740.9,807.068 1743.14,808.185 1745.38,809.301 1747.62,810.414 
  1749.86,811.526 1752.1,812.636 1754.34,813.743 1756.59,814.849 1758.83,815.953 1761.07,817.056 1763.31,818.156 1765.55,819.255 1767.79,820.351 1770.03,821.446 
  1772.27,822.539 1774.52,823.63 1776.76,824.72 1779,825.807 1781.24,826.893 1783.48,827.976 1785.72,829.058 1787.96,830.138 1790.2,831.217 1792.45,832.293 
  1794.69,833.368 1796.93,834.441 1799.17,835.512 1801.41,836.581 1803.65,837.649 1805.89,838.714 1808.13,839.778 1810.38,840.84 1812.62,841.9 1814.86,842.959 
  1817.1,844.016 1819.34,845.071 1821.58,846.124 1823.82,847.175 1826.06,848.225 1828.31,849.273 1830.55,850.319 1832.79,851.363 1835.03,852.406 1837.27,853.447 
  1839.51,854.486 1841.75,855.523 1843.99,856.558 1846.24,857.592 1848.48,858.623 1850.72,859.653 1852.96,860.682 1855.2,861.708 1857.44,862.733 1859.68,863.755 
  1861.92,864.776 1864.17,865.796 1866.41,866.813 1868.65,867.829 1870.89,868.843 1873.13,869.855 1875.37,870.865 1877.61,871.873 1879.85,872.88 1882.09,873.885 
  1884.34,874.888 1886.58,875.889 1888.82,876.889 1891.06,877.887 1893.3,878.883 1895.54,879.877 1897.78,880.869 1900.02,881.86 1902.27,882.849 1904.51,883.836 
  1906.75,884.821 1908.99,885.805 1911.23,886.786 1913.47,887.766 1915.71,888.744 1917.95,889.721 1920.2,890.696 1922.44,891.668 1924.68,892.639 1926.92,893.609 
  1929.16,894.576 1931.4,895.542 1933.64,896.506 1935.88,897.468 1938.13,898.429 1940.37,899.388 1942.61,900.345 1944.85,901.3 1947.09,902.253 1949.33,903.205 
  1951.57,904.155 1953.81,905.103 1956.06,906.05 1958.3,906.995 1960.54,907.938 1962.78,908.879 1965.02,909.818 1967.26,910.756 1969.5,911.692 1971.74,912.626 
  1973.99,913.559 1976.23,914.49 1978.47,915.419 1980.71,916.346 1982.95,917.272 1985.19,918.196 1987.43,919.118 1989.67,920.039 1991.92,920.957 1994.16,921.875 
  1996.4,922.79 1998.64,923.704 2000.88,924.615 2003.12,925.526 2005.36,926.434 2007.6,927.341 2009.85,928.246 2012.09,929.15 2014.33,930.052 2016.57,930.952 
  2018.81,931.85 2021.05,932.747 2023.29,933.642 2025.53,934.535 2027.78,935.427 2030.02,936.317 2032.26,937.205 2034.5,938.092 2036.74,938.977 2038.98,939.86 
  2041.22,940.742 2043.46,941.622 2045.71,942.5 2047.95,943.377 2050.19,944.252 2052.43,945.126 2054.67,945.997 2056.91,946.868 2059.15,947.736 2061.39,948.603 
  2063.64,949.468 2065.88,950.332 2068.12,951.194 2070.36,952.055 2072.6,952.914 2074.84,953.771 2077.08,954.626 2079.32,955.48 2081.57,956.333 2083.81,957.184 
  2086.05,958.033 2088.29,958.881 2090.53,959.727 2092.77,960.571 2095.01,961.414 2097.25,962.256 2099.5,963.095 2101.74,963.934 2103.98,964.77 2106.22,965.605 
  2108.46,966.439 2110.7,967.271 2112.94,968.102 2115.18,968.93 2117.43,969.758 2119.67,970.584 2121.91,971.408 2124.15,972.231 2126.39,973.052 2128.63,973.872 
  2130.87,974.69 2133.11,975.507 2135.36,976.323 2137.6,977.136 2139.84,977.949 2142.08,978.759 2144.32,979.569 2146.56,980.377 2148.8,981.183 2151.04,981.987 
  2153.29,982.791 2155.53,983.592 2157.77,984.392 2160.01,985.191 2162.25,985.988 2164.49,986.784 2166.73,987.578 2168.97,988.371 2171.22,989.162 2173.46,989.951 
  2175.7,990.739 2177.94,991.526 2180.18,992.311 2182.42,993.095 2184.66,993.877 2186.9,994.657 2189.15,995.436 2191.39,996.214 2193.63,996.99 2195.87,997.765 
  2198.11,998.538 2200.35,999.31 2202.59,1000.08 2204.83,1000.85 2207.08,1001.62 2209.32,1002.38 2211.56,1003.15 2213.8,1003.91 2216.04,1004.67 2218.28,1005.43 
  2220.52,1006.19 2222.76,1006.95 2225.01,1007.7 2227.25,1008.46 2229.49,1009.21 2231.73,1009.96 2233.97,1010.71 2236.21,1011.46 2238.45,1012.2 2240.69,1012.95 
  2242.94,1013.69 2245.18,1014.44 2247.42,1015.18 2249.66,1015.92 2251.9,1016.66 2254.14,1017.39 2256.38,1018.13 2258.62,1018.86 2260.86,1019.6 2263.11,1020.33 
  2265.35,1021.06 2267.59,1021.79 2269.83,1022.51 2272.07,1023.24 2274.31,1023.96 2276.55,1024.68 2278.79,1025.41 2281.04,1026.13 2283.28,1026.84 2285.52,1027.56 
  2287.76,1028.28 2290,1028.99 2292.24,1029.71 2294.48,1030.42 2296.72,1031.13 2298.97,1031.84 2301.21,1032.54 2303.45,1033.25 2305.69,1033.96 2307.93,1034.66 
  2310.17,1035.36 2312.41,1036.06 2314.65,1036.76 2316.9,1037.46 2319.14,1038.16 2321.38,1038.85 2323.62,1039.55 2325.86,1040.24 2328.1,1040.93 2330.34,1041.62 
  2332.58,1042.31 2334.83,1043 2337.07,1043.68 2339.31,1044.37 2341.55,1045.05 2343.79,1045.73 2346.03,1046.41 2348.27,1047.09 2350.51,1047.77 2352.76,1048.45 
  
  "/>
<circle clip-path="url(#clip6402)" style="fill:#000000; stroke:none; fill-opacity:1" cx="113.754" cy="1368.17" r="18"/>
<circle clip-path="url(#clip6402)" style="fill:#e26f46; stroke:none; fill-opacity:1" cx="113.754" cy="1368.17" r="14"/>
<circle clip-path="url(#clip6402)" style="fill:#000000; stroke:none; fill-opacity:1" cx="136.144" cy="1219.79" r="18"/>
<circle clip-path="url(#clip6402)" style="fill:#e26f46; stroke:none; fill-opacity:1" cx="136.144" cy="1219.79" r="14"/>
<circle clip-path="url(#clip6402)" style="fill:#000000; stroke:none; fill-opacity:1" cx="158.534" cy="1125.56" r="18"/>
<circle clip-path="url(#clip6402)" style="fill:#e26f46; stroke:none; fill-opacity:1" cx="158.534" cy="1125.56" r="14"/>
<circle clip-path="url(#clip6402)" style="fill:#000000; stroke:none; fill-opacity:1" cx="180.925" cy="1001.78" r="18"/>
<circle clip-path="url(#clip6402)" style="fill:#e26f46; stroke:none; fill-opacity:1" cx="180.925" cy="1001.78" r="14"/>
<circle clip-path="url(#clip6402)" style="fill:#000000; stroke:none; fill-opacity:1" cx="203.315" cy="874.528" r="18"/>
<circle clip-path="url(#clip6402)" style="fill:#e26f46; stroke:none; fill-opacity:1" cx="203.315" cy="874.528" r="14"/>
<circle clip-path="url(#clip6402)" style="fill:#000000; stroke:none; fill-opacity:1" cx="225.705" cy="788.634" r="18"/>
<circle clip-path="url(#clip6402)" style="fill:#e26f46; stroke:none; fill-opacity:1" cx="225.705" cy="788.634" r="14"/>
<circle clip-path="url(#clip6402)" style="fill:#000000; stroke:none; fill-opacity:1" cx="248.095" cy="710.926" r="18"/>
<circle clip-path="url(#clip6402)" style="fill:#e26f46; stroke:none; fill-opacity:1" cx="248.095" cy="710.926" r="14"/>
<circle clip-path="url(#clip6402)" style="fill:#000000; stroke:none; fill-opacity:1" cx="270.485" cy="640.544" r="18"/>
<circle clip-path="url(#clip6402)" style="fill:#e26f46; stroke:none; fill-opacity:1" cx="270.485" cy="640.544" r="14"/>
<circle clip-path="url(#clip6402)" style="fill:#000000; stroke:none; fill-opacity:1" cx="292.875" cy="585.498" r="18"/>
<circle clip-path="url(#clip6402)" style="fill:#e26f46; stroke:none; fill-opacity:1" cx="292.875" cy="585.498" r="14"/>
<circle clip-path="url(#clip6402)" style="fill:#000000; stroke:none; fill-opacity:1" cx="315.265" cy="462.679" r="18"/>
<circle clip-path="url(#clip6402)" style="fill:#e26f46; stroke:none; fill-opacity:1" cx="315.265" cy="462.679" r="14"/>
<circle clip-path="url(#clip6402)" style="fill:#000000; stroke:none; fill-opacity:1" cx="337.655" cy="478.494" r="18"/>
<circle clip-path="url(#clip6402)" style="fill:#e26f46; stroke:none; fill-opacity:1" cx="337.655" cy="478.494" r="14"/>
<circle clip-path="url(#clip6402)" style="fill:#000000; stroke:none; fill-opacity:1" cx="360.045" cy="434.52" r="18"/>
<circle clip-path="url(#clip6402)" style="fill:#e26f46; stroke:none; fill-opacity:1" cx="360.045" cy="434.52" r="14"/>
<circle clip-path="url(#clip6402)" style="fill:#000000; stroke:none; fill-opacity:1" cx="382.435" cy="359.102" r="18"/>
<circle clip-path="url(#clip6402)" style="fill:#e26f46; stroke:none; fill-opacity:1" cx="382.435" cy="359.102" r="14"/>
<circle clip-path="url(#clip6402)" style="fill:#000000; stroke:none; fill-opacity:1" cx="404.825" cy="311.638" r="18"/>
<circle clip-path="url(#clip6402)" style="fill:#e26f46; stroke:none; fill-opacity:1" cx="404.825" cy="311.638" r="14"/>
<circle clip-path="url(#clip6402)" style="fill:#000000; stroke:none; fill-opacity:1" cx="427.215" cy="316.649" r="18"/>
<circle clip-path="url(#clip6402)" style="fill:#e26f46; stroke:none; fill-opacity:1" cx="427.215" cy="316.649" r="14"/>
<circle clip-path="url(#clip6402)" style="fill:#000000; stroke:none; fill-opacity:1" cx="449.605" cy="286.339" r="18"/>
<circle clip-path="url(#clip6402)" style="fill:#e26f46; stroke:none; fill-opacity:1" cx="449.605" cy="286.339" r="14"/>
<circle clip-path="url(#clip6402)" style="fill:#000000; stroke:none; fill-opacity:1" cx="471.995" cy="307.887" r="18"/>
<circle clip-path="url(#clip6402)" style="fill:#e26f46; stroke:none; fill-opacity:1" cx="471.995" cy="307.887" r="14"/>
<circle clip-path="url(#clip6402)" style="fill:#000000; stroke:none; fill-opacity:1" cx="494.385" cy="316.67" r="18"/>
<circle clip-path="url(#clip6402)" style="fill:#e26f46; stroke:none; fill-opacity:1" cx="494.385" cy="316.67" r="14"/>
<circle clip-path="url(#clip6402)" style="fill:#000000; stroke:none; fill-opacity:1" cx="516.775" cy="158.579" r="18"/>
<circle clip-path="url(#clip6402)" style="fill:#e26f46; stroke:none; fill-opacity:1" cx="516.775" cy="158.579" r="14"/>
<circle clip-path="url(#clip6402)" style="fill:#000000; stroke:none; fill-opacity:1" cx="539.165" cy="209.685" r="18"/>
<circle clip-path="url(#clip6402)" style="fill:#e26f46; stroke:none; fill-opacity:1" cx="539.165" cy="209.685" r="14"/>
<circle clip-path="url(#clip6402)" style="fill:#000000; stroke:none; fill-opacity:1" cx="561.555" cy="211.619" r="18"/>
<circle clip-path="url(#clip6402)" style="fill:#e26f46; stroke:none; fill-opacity:1" cx="561.555" cy="211.619" r="14"/>
<circle clip-path="url(#clip6402)" style="fill:#000000; stroke:none; fill-opacity:1" cx="583.945" cy="220.594" r="18"/>
<circle clip-path="url(#clip6402)" style="fill:#e26f46; stroke:none; fill-opacity:1" cx="583.945" cy="220.594" r="14"/>
<circle clip-path="url(#clip6402)" style="fill:#000000; stroke:none; fill-opacity:1" cx="606.335" cy="164.539" r="18"/>
<circle clip-path="url(#clip6402)" style="fill:#e26f46; stroke:none; fill-opacity:1" cx="606.335" cy="164.539" r="14"/>
<circle clip-path="url(#clip6402)" style="fill:#000000; stroke:none; fill-opacity:1" cx="628.725" cy="200.573" r="18"/>
<circle clip-path="url(#clip6402)" style="fill:#e26f46; stroke:none; fill-opacity:1" cx="628.725" cy="200.573" r="14"/>
<circle clip-path="url(#clip6402)" style="fill:#000000; stroke:none; fill-opacity:1" cx="651.115" cy="190.17" r="18"/>
<circle clip-path="url(#clip6402)" style="fill:#e26f46; stroke:none; fill-opacity:1" cx="651.115" cy="190.17" r="14"/>
<circle clip-path="url(#clip6402)" style="fill:#000000; stroke:none; fill-opacity:1" cx="673.505" cy="197.721" r="18"/>
<circle clip-path="url(#clip6402)" style="fill:#e26f46; stroke:none; fill-opacity:1" cx="673.505" cy="197.721" r="14"/>
<circle clip-path="url(#clip6402)" style="fill:#000000; stroke:none; fill-opacity:1" cx="695.895" cy="215.959" r="18"/>
<circle clip-path="url(#clip6402)" style="fill:#e26f46; stroke:none; fill-opacity:1" cx="695.895" cy="215.959" r="14"/>
<circle clip-path="url(#clip6402)" style="fill:#000000; stroke:none; fill-opacity:1" cx="718.285" cy="196.269" r="18"/>
<circle clip-path="url(#clip6402)" style="fill:#e26f46; stroke:none; fill-opacity:1" cx="718.285" cy="196.269" r="14"/>
<circle clip-path="url(#clip6402)" style="fill:#000000; stroke:none; fill-opacity:1" cx="740.675" cy="208.255" r="18"/>
<circle clip-path="url(#clip6402)" style="fill:#e26f46; stroke:none; fill-opacity:1" cx="740.675" cy="208.255" r="14"/>
<circle clip-path="url(#clip6402)" style="fill:#000000; stroke:none; fill-opacity:1" cx="763.065" cy="248.284" r="18"/>
<circle clip-path="url(#clip6402)" style="fill:#e26f46; stroke:none; fill-opacity:1" cx="763.065" cy="248.284" r="14"/>
<circle clip-path="url(#clip6402)" style="fill:#000000; stroke:none; fill-opacity:1" cx="785.455" cy="191.078" r="18"/>
<circle clip-path="url(#clip6402)" style="fill:#e26f46; stroke:none; fill-opacity:1" cx="785.455" cy="191.078" r="14"/>
<circle clip-path="url(#clip6402)" style="fill:#000000; stroke:none; fill-opacity:1" cx="807.845" cy="231.577" r="18"/>
<circle clip-path="url(#clip6402)" style="fill:#e26f46; stroke:none; fill-opacity:1" cx="807.845" cy="231.577" r="14"/>
<circle clip-path="url(#clip6402)" style="fill:#000000; stroke:none; fill-opacity:1" cx="830.235" cy="236.743" r="18"/>
<circle clip-path="url(#clip6402)" style="fill:#e26f46; stroke:none; fill-opacity:1" cx="830.235" cy="236.743" r="14"/>
<circle clip-path="url(#clip6402)" style="fill:#000000; stroke:none; fill-opacity:1" cx="852.625" cy="274.839" r="18"/>
<circle clip-path="url(#clip6402)" style="fill:#e26f46; stroke:none; fill-opacity:1" cx="852.625" cy="274.839" r="14"/>
<circle clip-path="url(#clip6402)" style="fill:#000000; stroke:none; fill-opacity:1" cx="875.015" cy="256.941" r="18"/>
<circle clip-path="url(#clip6402)" style="fill:#e26f46; stroke:none; fill-opacity:1" cx="875.015" cy="256.941" r="14"/>
<circle clip-path="url(#clip6402)" style="fill:#000000; stroke:none; fill-opacity:1" cx="897.405" cy="275.033" r="18"/>
<circle clip-path="url(#clip6402)" style="fill:#e26f46; stroke:none; fill-opacity:1" cx="897.405" cy="275.033" r="14"/>
<circle clip-path="url(#clip6402)" style="fill:#000000; stroke:none; fill-opacity:1" cx="919.795" cy="305.088" r="18"/>
<circle clip-path="url(#clip6402)" style="fill:#e26f46; stroke:none; fill-opacity:1" cx="919.795" cy="305.088" r="14"/>
<circle clip-path="url(#clip6402)" style="fill:#000000; stroke:none; fill-opacity:1" cx="942.185" cy="370.349" r="18"/>
<circle clip-path="url(#clip6402)" style="fill:#e26f46; stroke:none; fill-opacity:1" cx="942.185" cy="370.349" r="14"/>
<circle clip-path="url(#clip6402)" style="fill:#000000; stroke:none; fill-opacity:1" cx="964.575" cy="282.448" r="18"/>
<circle clip-path="url(#clip6402)" style="fill:#e26f46; stroke:none; fill-opacity:1" cx="964.575" cy="282.448" r="14"/>
<circle clip-path="url(#clip6402)" style="fill:#000000; stroke:none; fill-opacity:1" cx="986.965" cy="302.373" r="18"/>
<circle clip-path="url(#clip6402)" style="fill:#e26f46; stroke:none; fill-opacity:1" cx="986.965" cy="302.373" r="14"/>
<circle clip-path="url(#clip6402)" style="fill:#000000; stroke:none; fill-opacity:1" cx="1009.36" cy="344.383" r="18"/>
<circle clip-path="url(#clip6402)" style="fill:#e26f46; stroke:none; fill-opacity:1" cx="1009.36" cy="344.383" r="14"/>
<circle clip-path="url(#clip6402)" style="fill:#000000; stroke:none; fill-opacity:1" cx="1031.75" cy="383.208" r="18"/>
<circle clip-path="url(#clip6402)" style="fill:#e26f46; stroke:none; fill-opacity:1" cx="1031.75" cy="383.208" r="14"/>
<circle clip-path="url(#clip6402)" style="fill:#000000; stroke:none; fill-opacity:1" cx="1054.14" cy="380.707" r="18"/>
<circle clip-path="url(#clip6402)" style="fill:#e26f46; stroke:none; fill-opacity:1" cx="1054.14" cy="380.707" r="14"/>
<circle clip-path="url(#clip6402)" style="fill:#000000; stroke:none; fill-opacity:1" cx="1076.53" cy="408.379" r="18"/>
<circle clip-path="url(#clip6402)" style="fill:#e26f46; stroke:none; fill-opacity:1" cx="1076.53" cy="408.379" r="14"/>
<circle clip-path="url(#clip6402)" style="fill:#000000; stroke:none; fill-opacity:1" cx="1098.92" cy="462.577" r="18"/>
<circle clip-path="url(#clip6402)" style="fill:#e26f46; stroke:none; fill-opacity:1" cx="1098.92" cy="462.577" r="14"/>
<circle clip-path="url(#clip6402)" style="fill:#000000; stroke:none; fill-opacity:1" cx="1121.31" cy="438.453" r="18"/>
<circle clip-path="url(#clip6402)" style="fill:#e26f46; stroke:none; fill-opacity:1" cx="1121.31" cy="438.453" r="14"/>
<circle clip-path="url(#clip6402)" style="fill:#000000; stroke:none; fill-opacity:1" cx="1143.7" cy="409.441" r="18"/>
<circle clip-path="url(#clip6402)" style="fill:#e26f46; stroke:none; fill-opacity:1" cx="1143.7" cy="409.441" r="14"/>
<circle clip-path="url(#clip6402)" style="fill:#000000; stroke:none; fill-opacity:1" cx="1166.09" cy="467.763" r="18"/>
<circle clip-path="url(#clip6402)" style="fill:#e26f46; stroke:none; fill-opacity:1" cx="1166.09" cy="467.763" r="14"/>
<circle clip-path="url(#clip6402)" style="fill:#000000; stroke:none; fill-opacity:1" cx="1188.48" cy="479.865" r="18"/>
<circle clip-path="url(#clip6402)" style="fill:#e26f46; stroke:none; fill-opacity:1" cx="1188.48" cy="479.865" r="14"/>
<circle clip-path="url(#clip6402)" style="fill:#000000; stroke:none; fill-opacity:1" cx="1210.87" cy="475.317" r="18"/>
<circle clip-path="url(#clip6402)" style="fill:#e26f46; stroke:none; fill-opacity:1" cx="1210.87" cy="475.317" r="14"/>
<circle clip-path="url(#clip6402)" style="fill:#000000; stroke:none; fill-opacity:1" cx="1233.26" cy="480.704" r="18"/>
<circle clip-path="url(#clip6402)" style="fill:#e26f46; stroke:none; fill-opacity:1" cx="1233.26" cy="480.704" r="14"/>
<circle clip-path="url(#clip6402)" style="fill:#000000; stroke:none; fill-opacity:1" cx="1255.65" cy="591.869" r="18"/>
<circle clip-path="url(#clip6402)" style="fill:#e26f46; stroke:none; fill-opacity:1" cx="1255.65" cy="591.869" r="14"/>
<circle clip-path="url(#clip6402)" style="fill:#000000; stroke:none; fill-opacity:1" cx="1278.04" cy="572.669" r="18"/>
<circle clip-path="url(#clip6402)" style="fill:#e26f46; stroke:none; fill-opacity:1" cx="1278.04" cy="572.669" r="14"/>
<circle clip-path="url(#clip6402)" style="fill:#000000; stroke:none; fill-opacity:1" cx="1300.43" cy="578.42" r="18"/>
<circle clip-path="url(#clip6402)" style="fill:#e26f46; stroke:none; fill-opacity:1" cx="1300.43" cy="578.42" r="14"/>
<circle clip-path="url(#clip6402)" style="fill:#000000; stroke:none; fill-opacity:1" cx="1322.82" cy="581.248" r="18"/>
<circle clip-path="url(#clip6402)" style="fill:#e26f46; stroke:none; fill-opacity:1" cx="1322.82" cy="581.248" r="14"/>
<circle clip-path="url(#clip6402)" style="fill:#000000; stroke:none; fill-opacity:1" cx="1345.21" cy="565.194" r="18"/>
<circle clip-path="url(#clip6402)" style="fill:#e26f46; stroke:none; fill-opacity:1" cx="1345.21" cy="565.194" r="14"/>
<circle clip-path="url(#clip6402)" style="fill:#000000; stroke:none; fill-opacity:1" cx="1367.6" cy="617.86" r="18"/>
<circle clip-path="url(#clip6402)" style="fill:#e26f46; stroke:none; fill-opacity:1" cx="1367.6" cy="617.86" r="14"/>
<circle clip-path="url(#clip6402)" style="fill:#000000; stroke:none; fill-opacity:1" cx="1389.99" cy="632.228" r="18"/>
<circle clip-path="url(#clip6402)" style="fill:#e26f46; stroke:none; fill-opacity:1" cx="1389.99" cy="632.228" r="14"/>
<circle clip-path="url(#clip6402)" style="fill:#000000; stroke:none; fill-opacity:1" cx="1412.38" cy="623.852" r="18"/>
<circle clip-path="url(#clip6402)" style="fill:#e26f46; stroke:none; fill-opacity:1" cx="1412.38" cy="623.852" r="14"/>
<circle clip-path="url(#clip6402)" style="fill:#000000; stroke:none; fill-opacity:1" cx="1434.77" cy="676.61" r="18"/>
<circle clip-path="url(#clip6402)" style="fill:#e26f46; stroke:none; fill-opacity:1" cx="1434.77" cy="676.61" r="14"/>
<circle clip-path="url(#clip6402)" style="fill:#000000; stroke:none; fill-opacity:1" cx="1457.16" cy="664.914" r="18"/>
<circle clip-path="url(#clip6402)" style="fill:#e26f46; stroke:none; fill-opacity:1" cx="1457.16" cy="664.914" r="14"/>
<circle clip-path="url(#clip6402)" style="fill:#000000; stroke:none; fill-opacity:1" cx="1479.55" cy="698.765" r="18"/>
<circle clip-path="url(#clip6402)" style="fill:#e26f46; stroke:none; fill-opacity:1" cx="1479.55" cy="698.765" r="14"/>
<circle clip-path="url(#clip6402)" style="fill:#000000; stroke:none; fill-opacity:1" cx="1501.94" cy="683.498" r="18"/>
<circle clip-path="url(#clip6402)" style="fill:#e26f46; stroke:none; fill-opacity:1" cx="1501.94" cy="683.498" r="14"/>
<circle clip-path="url(#clip6402)" style="fill:#000000; stroke:none; fill-opacity:1" cx="1524.33" cy="731.605" r="18"/>
<circle clip-path="url(#clip6402)" style="fill:#e26f46; stroke:none; fill-opacity:1" cx="1524.33" cy="731.605" r="14"/>
<circle clip-path="url(#clip6402)" style="fill:#000000; stroke:none; fill-opacity:1" cx="1546.72" cy="749.539" r="18"/>
<circle clip-path="url(#clip6402)" style="fill:#e26f46; stroke:none; fill-opacity:1" cx="1546.72" cy="749.539" r="14"/>
<circle clip-path="url(#clip6402)" style="fill:#000000; stroke:none; fill-opacity:1" cx="1569.11" cy="752.869" r="18"/>
<circle clip-path="url(#clip6402)" style="fill:#e26f46; stroke:none; fill-opacity:1" cx="1569.11" cy="752.869" r="14"/>
<circle clip-path="url(#clip6402)" style="fill:#000000; stroke:none; fill-opacity:1" cx="1591.5" cy="787.519" r="18"/>
<circle clip-path="url(#clip6402)" style="fill:#e26f46; stroke:none; fill-opacity:1" cx="1591.5" cy="787.519" r="14"/>
<circle clip-path="url(#clip6402)" style="fill:#000000; stroke:none; fill-opacity:1" cx="1613.89" cy="754.944" r="18"/>
<circle clip-path="url(#clip6402)" style="fill:#e26f46; stroke:none; fill-opacity:1" cx="1613.89" cy="754.944" r="14"/>
<circle clip-path="url(#clip6402)" style="fill:#000000; stroke:none; fill-opacity:1" cx="1636.28" cy="712.302" r="18"/>
<circle clip-path="url(#clip6402)" style="fill:#e26f46; stroke:none; fill-opacity:1" cx="1636.28" cy="712.302" r="14"/>
<circle clip-path="url(#clip6402)" style="fill:#000000; stroke:none; fill-opacity:1" cx="1658.67" cy="740.327" r="18"/>
<circle clip-path="url(#clip6402)" style="fill:#e26f46; stroke:none; fill-opacity:1" cx="1658.67" cy="740.327" r="14"/>
<circle clip-path="url(#clip6402)" style="fill:#000000; stroke:none; fill-opacity:1" cx="1681.06" cy="808.321" r="18"/>
<circle clip-path="url(#clip6402)" style="fill:#e26f46; stroke:none; fill-opacity:1" cx="1681.06" cy="808.321" r="14"/>
<circle clip-path="url(#clip6402)" style="fill:#000000; stroke:none; fill-opacity:1" cx="1703.45" cy="763.433" r="18"/>
<circle clip-path="url(#clip6402)" style="fill:#e26f46; stroke:none; fill-opacity:1" cx="1703.45" cy="763.433" r="14"/>
<circle clip-path="url(#clip6402)" style="fill:#000000; stroke:none; fill-opacity:1" cx="1725.84" cy="794.899" r="18"/>
<circle clip-path="url(#clip6402)" style="fill:#e26f46; stroke:none; fill-opacity:1" cx="1725.84" cy="794.899" r="14"/>
<circle clip-path="url(#clip6402)" style="fill:#000000; stroke:none; fill-opacity:1" cx="1748.23" cy="820.698" r="18"/>
<circle clip-path="url(#clip6402)" style="fill:#e26f46; stroke:none; fill-opacity:1" cx="1748.23" cy="820.698" r="14"/>
<circle clip-path="url(#clip6402)" style="fill:#000000; stroke:none; fill-opacity:1" cx="1770.62" cy="778.047" r="18"/>
<circle clip-path="url(#clip6402)" style="fill:#e26f46; stroke:none; fill-opacity:1" cx="1770.62" cy="778.047" r="14"/>
<circle clip-path="url(#clip6402)" style="fill:#000000; stroke:none; fill-opacity:1" cx="1793.01" cy="845.956" r="18"/>
<circle clip-path="url(#clip6402)" style="fill:#e26f46; stroke:none; fill-opacity:1" cx="1793.01" cy="845.956" r="14"/>
<circle clip-path="url(#clip6402)" style="fill:#000000; stroke:none; fill-opacity:1" cx="1815.4" cy="810.038" r="18"/>
<circle clip-path="url(#clip6402)" style="fill:#e26f46; stroke:none; fill-opacity:1" cx="1815.4" cy="810.038" r="14"/>
<circle clip-path="url(#clip6402)" style="fill:#000000; stroke:none; fill-opacity:1" cx="1837.79" cy="861.279" r="18"/>
<circle clip-path="url(#clip6402)" style="fill:#e26f46; stroke:none; fill-opacity:1" cx="1837.79" cy="861.279" r="14"/>
<circle clip-path="url(#clip6402)" style="fill:#000000; stroke:none; fill-opacity:1" cx="1860.18" cy="855.14" r="18"/>
<circle clip-path="url(#clip6402)" style="fill:#e26f46; stroke:none; fill-opacity:1" cx="1860.18" cy="855.14" r="14"/>
<circle clip-path="url(#clip6402)" style="fill:#000000; stroke:none; fill-opacity:1" cx="1882.57" cy="978.967" r="18"/>
<circle clip-path="url(#clip6402)" style="fill:#e26f46; stroke:none; fill-opacity:1" cx="1882.57" cy="978.967" r="14"/>
<circle clip-path="url(#clip6402)" style="fill:#000000; stroke:none; fill-opacity:1" cx="1904.96" cy="900.016" r="18"/>
<circle clip-path="url(#clip6402)" style="fill:#e26f46; stroke:none; fill-opacity:1" cx="1904.96" cy="900.016" r="14"/>
<circle clip-path="url(#clip6402)" style="fill:#000000; stroke:none; fill-opacity:1" cx="1927.35" cy="890.24" r="18"/>
<circle clip-path="url(#clip6402)" style="fill:#e26f46; stroke:none; fill-opacity:1" cx="1927.35" cy="890.24" r="14"/>
<circle clip-path="url(#clip6402)" style="fill:#000000; stroke:none; fill-opacity:1" cx="1949.74" cy="839.753" r="18"/>
<circle clip-path="url(#clip6402)" style="fill:#e26f46; stroke:none; fill-opacity:1" cx="1949.74" cy="839.753" r="14"/>
<circle clip-path="url(#clip6402)" style="fill:#000000; stroke:none; fill-opacity:1" cx="1972.13" cy="866.726" r="18"/>
<circle clip-path="url(#clip6402)" style="fill:#e26f46; stroke:none; fill-opacity:1" cx="1972.13" cy="866.726" r="14"/>
<circle clip-path="url(#clip6402)" style="fill:#000000; stroke:none; fill-opacity:1" cx="1994.52" cy="985.792" r="18"/>
<circle clip-path="url(#clip6402)" style="fill:#e26f46; stroke:none; fill-opacity:1" cx="1994.52" cy="985.792" r="14"/>
<circle clip-path="url(#clip6402)" style="fill:#000000; stroke:none; fill-opacity:1" cx="2016.91" cy="914.248" r="18"/>
<circle clip-path="url(#clip6402)" style="fill:#e26f46; stroke:none; fill-opacity:1" cx="2016.91" cy="914.248" r="14"/>
<circle clip-path="url(#clip6402)" style="fill:#000000; stroke:none; fill-opacity:1" cx="2039.3" cy="957.189" r="18"/>
<circle clip-path="url(#clip6402)" style="fill:#e26f46; stroke:none; fill-opacity:1" cx="2039.3" cy="957.189" r="14"/>
<circle clip-path="url(#clip6402)" style="fill:#000000; stroke:none; fill-opacity:1" cx="2061.69" cy="963.141" r="18"/>
<circle clip-path="url(#clip6402)" style="fill:#e26f46; stroke:none; fill-opacity:1" cx="2061.69" cy="963.141" r="14"/>
<circle clip-path="url(#clip6402)" style="fill:#000000; stroke:none; fill-opacity:1" cx="2084.08" cy="952.005" r="18"/>
<circle clip-path="url(#clip6402)" style="fill:#e26f46; stroke:none; fill-opacity:1" cx="2084.08" cy="952.005" r="14"/>
<circle clip-path="url(#clip6402)" style="fill:#000000; stroke:none; fill-opacity:1" cx="2106.47" cy="1011.6" r="18"/>
<circle clip-path="url(#clip6402)" style="fill:#e26f46; stroke:none; fill-opacity:1" cx="2106.47" cy="1011.6" r="14"/>
<circle clip-path="url(#clip6402)" style="fill:#000000; stroke:none; fill-opacity:1" cx="2128.86" cy="960.599" r="18"/>
<circle clip-path="url(#clip6402)" style="fill:#e26f46; stroke:none; fill-opacity:1" cx="2128.86" cy="960.599" r="14"/>
<circle clip-path="url(#clip6402)" style="fill:#000000; stroke:none; fill-opacity:1" cx="2151.25" cy="931.342" r="18"/>
<circle clip-path="url(#clip6402)" style="fill:#e26f46; stroke:none; fill-opacity:1" cx="2151.25" cy="931.342" r="14"/>
<circle clip-path="url(#clip6402)" style="fill:#000000; stroke:none; fill-opacity:1" cx="2173.64" cy="982.801" r="18"/>
<circle clip-path="url(#clip6402)" style="fill:#e26f46; stroke:none; fill-opacity:1" cx="2173.64" cy="982.801" r="14"/>
<circle clip-path="url(#clip6402)" style="fill:#000000; stroke:none; fill-opacity:1" cx="2196.03" cy="927.838" r="18"/>
<circle clip-path="url(#clip6402)" style="fill:#e26f46; stroke:none; fill-opacity:1" cx="2196.03" cy="927.838" r="14"/>
<circle clip-path="url(#clip6402)" style="fill:#000000; stroke:none; fill-opacity:1" cx="2218.42" cy="1007.95" r="18"/>
<circle clip-path="url(#clip6402)" style="fill:#e26f46; stroke:none; fill-opacity:1" cx="2218.42" cy="1007.95" r="14"/>
<circle clip-path="url(#clip6402)" style="fill:#000000; stroke:none; fill-opacity:1" cx="2240.81" cy="972.526" r="18"/>
<circle clip-path="url(#clip6402)" style="fill:#e26f46; stroke:none; fill-opacity:1" cx="2240.81" cy="972.526" r="14"/>
<circle clip-path="url(#clip6402)" style="fill:#000000; stroke:none; fill-opacity:1" cx="2263.2" cy="983.468" r="18"/>
<circle clip-path="url(#clip6402)" style="fill:#e26f46; stroke:none; fill-opacity:1" cx="2263.2" cy="983.468" r="14"/>
<circle clip-path="url(#clip6402)" style="fill:#000000; stroke:none; fill-opacity:1" cx="2285.59" cy="1064.54" r="18"/>
<circle clip-path="url(#clip6402)" style="fill:#e26f46; stroke:none; fill-opacity:1" cx="2285.59" cy="1064.54" r="14"/>
<circle clip-path="url(#clip6402)" style="fill:#000000; stroke:none; fill-opacity:1" cx="2307.98" cy="1026.9" r="18"/>
<circle clip-path="url(#clip6402)" style="fill:#e26f46; stroke:none; fill-opacity:1" cx="2307.98" cy="1026.9" r="14"/>
<circle clip-path="url(#clip6402)" style="fill:#000000; stroke:none; fill-opacity:1" cx="2330.37" cy="1017.44" r="18"/>
<circle clip-path="url(#clip6402)" style="fill:#e26f46; stroke:none; fill-opacity:1" cx="2330.37" cy="1017.44" r="14"/>
<circle clip-path="url(#clip6402)" style="fill:#000000; stroke:none; fill-opacity:1" cx="2352.76" cy="1069.1" r="18"/>
<circle clip-path="url(#clip6402)" style="fill:#e26f46; stroke:none; fill-opacity:1" cx="2352.76" cy="1069.1" r="14"/>
<polyline clip-path="url(#clip6402)" style="stroke:#3da44d; stroke-width:12; stroke-opacity:1; fill:none" stroke-dasharray="48, 30" points="
  113.754,1388.71 115.996,1373.52 118.237,1358.48 120.478,1343.58 122.719,1328.84 124.961,1314.25 127.202,1299.81 129.443,1285.51 131.684,1271.36 133.926,1257.36 
  136.167,1243.49 138.408,1229.77 140.649,1216.19 142.891,1202.75 145.132,1189.45 147.373,1176.28 149.614,1163.25 151.856,1150.36 154.097,1137.6 156.338,1124.97 
  158.579,1112.47 160.821,1100.1 163.062,1087.87 165.303,1075.76 167.544,1063.77 169.786,1051.92 172.027,1040.19 174.268,1028.58 176.509,1017.09 178.751,1005.73 
  180.992,994.485 183.233,983.362 185.474,972.356 187.715,961.469 189.957,950.697 192.198,940.042 194.439,929.501 196.68,919.073 198.922,908.758 201.163,898.554 
  203.404,888.461 205.645,878.478 207.887,868.604 210.128,858.837 212.369,849.177 214.61,839.623 216.852,830.174 219.093,820.829 221.334,811.588 223.575,802.448 
  225.817,793.411 228.058,784.473 230.299,775.636 232.54,766.897 234.782,758.257 237.023,749.713 239.264,741.266 241.505,732.914 243.747,724.657 245.988,716.494 
  248.229,708.424 250.47,700.447 252.712,692.56 254.953,684.765 257.194,677.059 259.435,669.442 261.676,661.914 263.918,654.473 266.159,647.119 268.4,639.851 
  270.641,632.668 272.883,625.569 275.124,618.555 277.365,611.623 279.606,604.774 281.848,598.006 284.089,591.319 286.33,584.713 288.571,578.186 290.813,571.737 
  293.054,565.367 295.295,559.074 297.536,552.857 299.778,546.717 302.019,540.652 304.26,534.662 306.501,528.746 308.743,522.903 310.984,517.133 313.225,511.435 
  315.466,505.809 317.708,500.253 319.949,494.768 322.19,489.352 324.431,484.006 326.673,478.728 328.914,473.517 331.155,468.374 333.396,463.298 335.637,458.287 
  337.879,453.342 340.12,448.462 342.361,443.646 344.602,438.893 346.844,434.204 349.085,429.577 351.326,425.013 353.567,420.509 355.809,416.067 358.05,411.685 
  360.291,407.363 362.532,403.101 364.774,398.897 367.015,394.751 369.256,390.664 371.497,386.633 373.739,382.66 375.98,378.742 378.221,374.881 380.462,371.074 
  382.704,367.323 384.945,363.625 387.186,359.982 389.427,356.392 391.669,352.854 393.91,349.369 396.151,345.936 398.392,342.554 400.634,339.223 402.875,335.943 
  405.116,332.712 407.357,329.532 409.598,326.4 411.84,323.317 414.081,320.282 416.322,317.295 418.563,314.355 420.805,311.462 423.046,308.616 425.287,305.816 
  427.528,303.061 429.77,300.351 432.011,297.687 434.252,295.066 436.493,292.49 438.735,289.957 440.976,287.468 443.217,285.021 445.458,282.617 447.7,280.254 
  449.941,277.934 452.182,275.654 454.423,273.415 456.665,271.217 458.906,269.059 461.147,266.94 463.388,264.861 465.63,262.821 467.871,260.82 470.112,258.857 
  472.353,256.932 474.595,255.045 476.836,253.194 479.077,251.381 481.318,249.604 483.56,247.864 485.801,246.16 488.042,244.491 490.283,242.857 492.524,241.259 
  494.766,239.695 497.007,238.165 499.248,236.669 501.489,235.206 503.731,233.777 505.972,232.381 508.213,231.017 510.454,229.686 512.696,228.387 514.937,227.119 
  517.178,225.883 519.419,224.678 521.661,223.504 523.902,222.361 526.143,221.248 528.384,220.165 530.626,219.112 532.867,218.088 535.108,217.094 537.349,216.128 
  539.591,215.191 541.832,214.283 544.073,213.402 546.314,212.55 548.556,211.725 550.797,210.927 553.038,210.157 555.279,209.413 557.521,208.696 559.762,208.005 
  562.003,207.34 564.244,206.701 566.485,206.087 568.727,205.499 570.968,204.935 573.209,204.397 575.45,203.883 577.692,203.393 579.933,202.928 582.174,202.486 
  584.415,202.068 586.657,201.673 588.898,201.301 591.139,200.952 593.38,200.626 595.622,200.323 597.863,200.041 600.104,199.782 602.345,199.544 604.587,199.328 
  606.828,199.133 609.069,198.959 611.31,198.806 613.552,198.674 615.793,198.563 618.034,198.471 620.275,198.4 622.517,198.349 624.758,198.317 626.999,198.305 
  629.24,198.312 631.482,198.338 633.723,198.383 635.964,198.447 638.205,198.529 640.446,198.629 642.688,198.748 644.929,198.885 647.17,199.039 649.411,199.211 
  651.653,199.4 653.894,199.607 656.135,199.83 658.376,200.071 660.618,200.328 662.859,200.601 665.1,200.891 667.341,201.198 669.583,201.52 671.824,201.858 
  674.065,202.212 676.306,202.581 678.548,202.966 680.789,203.366 683.03,203.781 685.271,204.211 687.513,204.656 689.754,205.115 691.995,205.589 694.236,206.077 
  696.478,206.579 698.719,207.096 700.96,207.626 703.201,208.17 705.443,208.728 707.684,209.299 709.925,209.883 712.166,210.48 714.408,211.09 716.649,211.712 
  718.89,212.348 721.131,212.996 723.372,213.656 725.614,214.329 727.855,215.014 730.096,215.71 732.337,216.419 734.579,217.139 736.82,217.871 739.061,218.615 
  741.302,219.37 743.544,220.136 745.785,220.913 748.026,221.701 750.267,222.501 752.509,223.311 754.75,224.131 756.991,224.962 759.232,225.804 761.474,226.656 
  763.715,227.518 765.956,228.39 768.197,229.272 770.439,230.164 772.68,231.066 774.921,231.977 777.162,232.898 779.404,233.828 781.645,234.768 783.886,235.716 
  786.127,236.674 788.369,237.641 790.61,238.616 792.851,239.6 795.092,240.593 797.333,241.595 799.575,242.605 801.816,243.623 804.057,244.649 806.298,245.684 
  808.54,246.727 810.781,247.777 813.022,248.836 815.263,249.902 817.505,250.976 819.746,252.057 821.987,253.146 824.228,254.242 826.47,255.345 828.711,256.456 
  830.952,257.573 833.193,258.698 835.435,259.829 837.676,260.968 839.917,262.113 842.158,263.264 844.4,264.423 846.641,265.587 848.882,266.758 851.123,267.936 
  853.365,269.119 855.606,270.309 857.847,271.504 860.088,272.706 862.33,273.913 864.571,275.126 866.812,276.345 869.053,277.57 871.294,278.8 873.536,280.036 
  875.777,281.277 878.018,282.523 880.259,283.775 882.501,285.031 884.742,286.293 886.983,287.56 889.224,288.832 891.466,290.108 893.707,291.39 895.948,292.676 
  898.189,293.967 900.431,295.263 902.672,296.563 904.913,297.867 907.154,299.176 909.396,300.489 911.637,301.807 913.878,303.129 916.119,304.455 918.361,305.785 
  920.602,307.119 922.843,308.457 925.084,309.799 927.326,311.145 929.567,312.495 931.808,313.848 934.049,315.205 936.291,316.566 938.532,317.93 940.773,319.298 
  943.014,320.669 945.256,322.044 947.497,323.422 949.738,324.803 951.979,326.188 954.22,327.576 956.462,328.967 958.703,330.361 960.944,331.759 963.185,333.159 
  965.427,334.562 967.668,335.968 969.909,337.377 972.15,338.788 974.392,340.202 976.633,341.619 978.874,343.038 981.115,344.46 983.357,345.884 985.598,347.311 
  987.839,348.74 990.08,350.171 992.322,351.605 994.563,353.041 996.804,354.479 999.045,355.919 1001.29,357.362 1003.53,358.807 1005.77,360.253 1008.01,361.702 
  1010.25,363.153 1012.49,364.605 1014.73,366.06 1016.98,367.516 1019.22,368.974 1021.46,370.434 1023.7,371.896 1025.94,373.359 1028.18,374.824 1030.42,376.29 
  1032.66,377.758 1034.91,379.228 1037.15,380.699 1039.39,382.172 1041.63,383.646 1043.87,385.121 1046.11,386.598 1048.35,388.076 1050.59,389.556 1052.84,391.036 
  1055.08,392.518 1057.32,394.001 1059.56,395.485 1061.8,396.97 1064.04,398.456 1066.28,399.943 1068.52,401.432 1070.77,402.921 1073.01,404.411 1075.25,405.902 
  1077.49,407.394 1079.73,408.886 1081.97,410.38 1084.21,411.874 1086.45,413.369 1088.7,414.865 1090.94,416.361 1093.18,417.858 1095.42,419.355 1097.66,420.853 
  1099.9,422.352 1102.14,423.851 1104.38,425.351 1106.62,426.851 1108.87,428.351 1111.11,429.852 1113.35,431.353 1115.59,432.855 1117.83,434.356 1120.07,435.858 
  1122.31,437.361 1124.55,438.863 1126.8,440.366 1129.04,441.869 1131.28,443.372 1133.52,444.875 1135.76,446.378 1138,447.881 1140.24,449.385 1142.48,450.888 
  1144.73,452.391 1146.97,453.894 1149.21,455.397 1151.45,456.9 1153.69,458.403 1155.93,459.906 1158.17,461.409 1160.41,462.911 1162.66,464.413 1164.9,465.915 
  1167.14,467.417 1169.38,468.918 1171.62,470.419 1173.86,471.92 1176.1,473.42 1178.34,474.92 1180.59,476.42 1182.83,477.919 1185.07,479.418 1187.31,480.916 
  1189.55,482.414 1191.79,483.911 1194.03,485.408 1196.27,486.904 1198.52,488.4 1200.76,489.895 1203,491.39 1205.24,492.884 1207.48,494.377 1209.72,495.87 
  1211.96,497.362 1214.2,498.853 1216.45,500.344 1218.69,501.833 1220.93,503.323 1223.17,504.811 1225.41,506.299 1227.65,507.786 1229.89,509.272 1232.13,510.757 
  1234.38,512.241 1236.62,513.725 1238.86,515.208 1241.1,516.69 1243.34,518.171 1245.58,519.651 1247.82,521.13 1250.06,522.608 1252.31,524.085 1254.55,525.562 
  1256.79,527.037 1259.03,528.512 1261.27,529.985 1263.51,531.458 1265.75,532.929 1267.99,534.399 1270.24,535.869 1272.48,537.337 1274.72,538.805 1276.96,540.271 
  1279.2,541.736 1281.44,543.2 1283.68,544.663 1285.92,546.125 1288.17,547.586 1290.41,549.046 1292.65,550.504 1294.89,551.962 1297.13,553.418 1299.37,554.873 
  1301.61,556.327 1303.85,557.779 1306.1,559.23 1308.34,560.68 1310.58,562.129 1312.82,563.576 1315.06,565.022 1317.3,566.467 1319.54,567.911 1321.78,569.353 
  1324.03,570.794 1326.27,572.233 1328.51,573.671 1330.75,575.108 1332.99,576.543 1335.23,577.977 1337.47,579.41 1339.71,580.841 1341.96,582.271 1344.2,583.7 
  1346.44,585.127 1348.68,586.552 1350.92,587.977 1353.16,589.399 1355.4,590.821 1357.64,592.241 1359.89,593.659 1362.13,595.076 1364.37,596.492 1366.61,597.906 
  1368.85,599.318 1371.09,600.729 1373.33,602.139 1375.57,603.547 1377.82,604.953 1380.06,606.358 1382.3,607.762 1384.54,609.164 1386.78,610.564 1389.02,611.963 
  1391.26,613.36 1393.5,614.756 1395.75,616.15 1397.99,617.543 1400.23,618.934 1402.47,620.323 1404.71,621.711 1406.95,623.097 1409.19,624.482 1411.43,625.865 
  1413.68,627.246 1415.92,628.626 1418.16,630.004 1420.4,631.381 1422.64,632.756 1424.88,634.129 1427.12,635.5 1429.36,636.87 1431.61,638.239 1433.85,639.605 
  1436.09,640.97 1438.33,642.333 1440.57,643.695 1442.81,645.055 1445.05,646.413 1447.29,647.77 1449.54,649.124 1451.78,650.477 1454.02,651.829 1456.26,653.178 
  1458.5,654.526 1460.74,655.872 1462.98,657.217 1465.22,658.56 1467.47,659.901 1469.71,661.24 1471.95,662.577 1474.19,663.913 1476.43,665.247 1478.67,666.579 
  1480.91,667.91 1483.15,669.238 1485.39,670.565 1487.64,671.89 1489.88,673.214 1492.12,674.535 1494.36,675.855 1496.6,677.173 1498.84,678.489 1501.08,679.803 
  1503.32,681.116 1505.57,682.427 1507.81,683.736 1510.05,685.043 1512.29,686.348 1514.53,687.651 1516.77,688.953 1519.01,690.253 1521.25,691.551 1523.5,692.847 
  1525.74,694.141 1527.98,695.434 1530.22,696.724 1532.46,698.013 1534.7,699.3 1536.94,700.585 1539.18,701.869 1541.43,703.15 1543.67,704.429 1545.91,705.707 
  1548.15,706.983 1550.39,708.257 1552.63,709.529 1554.87,710.799 1557.11,712.067 1559.36,713.334 1561.6,714.598 1563.84,715.861 1566.08,717.122 1568.32,718.381 
  1570.56,719.638 1572.8,720.893 1575.04,722.146 1577.29,723.398 1579.53,724.647 1581.77,725.895 1584.01,727.141 1586.25,728.384 1588.49,729.626 1590.73,730.866 
  1592.97,732.105 1595.22,733.341 1597.46,734.575 1599.7,735.808 1601.94,737.038 1604.18,738.267 1606.42,739.494 1608.66,740.718 1610.9,741.941 1613.15,743.162 
  1615.39,744.382 1617.63,745.599 1619.87,746.814 1622.11,748.028 1624.35,749.239 1626.59,750.449 1628.83,751.657 1631.08,752.862 1633.32,754.066 1635.56,755.268 
  1637.8,756.468 1640.04,757.667 1642.28,758.863 1644.52,760.057 1646.76,761.25 1649.01,762.44 1651.25,763.629 1653.49,764.816 1655.73,766.001 1657.97,767.184 
  1660.21,768.365 1662.45,769.544 1664.69,770.721 1666.94,771.897 1669.18,773.07 1671.42,774.242 1673.66,775.411 1675.9,776.579 1678.14,777.745 1680.38,778.909 
  1682.62,780.071 1684.87,781.231 1687.11,782.39 1689.35,783.546 1691.59,784.701 1693.83,785.854 1696.07,787.004 1698.31,788.153 1700.55,789.3 1702.8,790.446 
  1705.04,791.589 1707.28,792.73 1709.52,793.87 1711.76,795.008 1714,796.144 1716.24,797.278 1718.48,798.41 1720.73,799.54 1722.97,800.668 1725.21,801.795 
  1727.45,802.919 1729.69,804.042 1731.93,805.162 1734.17,806.281 1736.41,807.398 1738.66,808.513 1740.9,809.626 1743.14,810.737 1745.38,811.847 1747.62,812.954 
  1749.86,814.06 1752.1,815.164 1754.34,816.266 1756.59,817.366 1758.83,818.464 1761.07,819.56 1763.31,820.654 1765.55,821.747 1767.79,822.837 1770.03,823.926 
  1772.27,825.013 1774.52,826.098 1776.76,827.181 1779,828.263 1781.24,829.342 1783.48,830.42 1785.72,831.496 1787.96,832.57 1790.2,833.642 1792.45,834.712 
  1794.69,835.78 1796.93,836.847 1799.17,837.911 1801.41,838.974 1803.65,840.035 1805.89,841.094 1808.13,842.152 1810.38,843.207 1812.62,844.261 1814.86,845.313 
  1817.1,846.363 1819.34,847.411 1821.58,848.457 1823.82,849.502 1826.06,850.545 1828.31,851.585 1830.55,852.625 1832.79,853.662 1835.03,854.697 1837.27,855.731 
  1839.51,856.763 1841.75,857.793 1843.99,858.821 1846.24,859.847 1848.48,860.872 1850.72,861.894 1852.96,862.915 1855.2,863.935 1857.44,864.952 1859.68,865.967 
  1861.92,866.981 1864.17,867.993 1866.41,869.003 1868.65,870.012 1870.89,871.018 1873.13,872.023 1875.37,873.026 1877.61,874.028 1879.85,875.027 1882.09,876.025 
  1884.34,877.021 1886.58,878.015 1888.82,879.007 1891.06,879.998 1893.3,880.987 1895.54,881.974 1897.78,882.959 1900.02,883.942 1902.27,884.924 1904.51,885.904 
  1906.75,886.883 1908.99,887.859 1911.23,888.834 1913.47,889.807 1915.71,890.778 1917.95,891.747 1920.2,892.715 1922.44,893.681 1924.68,894.645 1926.92,895.608 
  1929.16,896.569 1931.4,897.528 1933.64,898.485 1935.88,899.441 1938.13,900.395 1940.37,901.347 1942.61,902.297 1944.85,903.246 1947.09,904.193 1949.33,905.138 
  1951.57,906.081 1953.81,907.023 1956.06,907.963 1958.3,908.902 1960.54,909.838 1962.78,910.773 1965.02,911.706 1967.26,912.638 1969.5,913.568 1971.74,914.496 
  1973.99,915.422 1976.23,916.347 1978.47,917.27 1980.71,918.191 1982.95,919.111 1985.19,920.029 1987.43,920.945 1989.67,921.86 1991.92,922.773 1994.16,923.684 
  1996.4,924.594 1998.64,925.501 2000.88,926.408 2003.12,927.312 2005.36,928.215 2007.6,929.116 2009.85,930.016 2012.09,930.913 2014.33,931.81 2016.57,932.704 
  2018.81,933.597 2021.05,934.488 2023.29,935.378 2025.53,936.266 2027.78,937.152 2030.02,938.037 2032.26,938.92 2034.5,939.801 2036.74,940.681 2038.98,941.559 
  2041.22,942.435 2043.46,943.31 2045.71,944.183 2047.95,945.055 2050.19,945.925 2052.43,946.793 2054.67,947.66 2056.91,948.525 2059.15,949.388 2061.39,950.25 
  2063.64,951.11 2065.88,951.969 2068.12,952.826 2070.36,953.681 2072.6,954.535 2074.84,955.387 2077.08,956.237 2079.32,957.086 2081.57,957.934 2083.81,958.779 
  2086.05,959.624 2088.29,960.466 2090.53,961.307 2092.77,962.147 2095.01,962.985 2097.25,963.821 2099.5,964.655 2101.74,965.489 2103.98,966.32 2106.22,967.15 
  2108.46,967.979 2110.7,968.805 2112.94,969.631 2115.18,970.454 2117.43,971.276 2119.67,972.097 2121.91,972.916 2124.15,973.734 2126.39,974.55 2128.63,975.364 
  2130.87,976.177 2133.11,976.988 2135.36,977.798 2137.6,978.606 2139.84,979.413 2142.08,980.218 2144.32,981.022 2146.56,981.824 2148.8,982.624 2151.04,983.423 
  2153.29,984.221 2155.53,985.017 2157.77,985.811 2160.01,986.604 2162.25,987.396 2164.49,988.186 2166.73,988.974 2168.97,989.761 2171.22,990.547 2173.46,991.331 
  2175.7,992.113 2177.94,992.894 2180.18,993.674 2182.42,994.452 2184.66,995.228 2186.9,996.003 2189.15,996.777 2191.39,997.549 2193.63,998.32 2195.87,999.089 
  2198.11,999.856 2200.35,1000.62 2202.59,1001.39 2204.83,1002.15 2207.08,1002.91 2209.32,1003.67 2211.56,1004.43 2213.8,1005.19 2216.04,1005.95 2218.28,1006.7 
  2220.52,1007.45 2222.76,1008.2 2225.01,1008.95 2227.25,1009.7 2229.49,1010.45 2231.73,1011.2 2233.97,1011.94 2236.21,1012.68 2238.45,1013.43 2240.69,1014.17 
  2242.94,1014.9 2245.18,1015.64 2247.42,1016.38 2249.66,1017.11 2251.9,1017.85 2254.14,1018.58 2256.38,1019.31 2258.62,1020.04 2260.86,1020.76 2263.11,1021.49 
  2265.35,1022.22 2267.59,1022.94 2269.83,1023.66 2272.07,1024.38 2274.31,1025.1 2276.55,1025.82 2278.79,1026.53 2281.04,1027.25 2283.28,1027.96 2285.52,1028.68 
  2287.76,1029.39 2290,1030.1 2292.24,1030.8 2294.48,1031.51 2296.72,1032.22 2298.97,1032.92 2301.21,1033.62 2303.45,1034.33 2305.69,1035.03 2307.93,1035.72 
  2310.17,1036.42 2312.41,1037.12 2314.65,1037.81 2316.9,1038.51 2319.14,1039.2 2321.38,1039.89 2323.62,1040.58 2325.86,1041.27 2328.1,1041.95 2330.34,1042.64 
  2332.58,1043.32 2334.83,1044.01 2337.07,1044.69 2339.31,1045.37 2341.55,1046.05 2343.79,1046.72 2346.03,1047.4 2348.27,1048.08 2350.51,1048.75 2352.76,1049.42 
  
  "/>
<polygon clip-path="url(#clip6400)" points="
1824.11,447.115 2280.76,447.115 2280.76,205.195 1824.11,205.195 
  " fill="#ffffff" fill-rule="evenodd" fill-opacity="1"/>
<polyline clip-path="url(#clip6400)" style="stroke:#000000; stroke-width:4; stroke-opacity:1; fill:none" points="
  1824.11,447.115 2280.76,447.115 2280.76,205.195 1824.11,205.195 1824.11,447.115 
  "/>
<polyline clip-path="url(#clip6400)" style="stroke:#009af9; stroke-width:12; stroke-opacity:1; fill:none" points="
  1848.11,265.675 1992.11,265.675 
  "/>
<g clip-path="url(#clip6400)">
<text style="fill:#000000; fill-opacity:1; font-family:Arial,Helvetica Neue,Helvetica,sans-serif; font-size:48px; text-anchor:start;" transform="rotate(0, 2016.11, 283.175)" x="2016.11" y="283.175">True</text>
</g>
<circle clip-path="url(#clip6400)" style="fill:#000000; stroke:none; fill-opacity:1" cx="1932.11" cy="326.155" r="25"/>
<circle clip-path="url(#clip6400)" style="fill:#e26f46; stroke:none; fill-opacity:1" cx="1932.11" cy="326.155" r="21"/>
<g clip-path="url(#clip6400)">
<text style="fill:#000000; fill-opacity:1; font-family:Arial,Helvetica Neue,Helvetica,sans-serif; font-size:48px; text-anchor:start;" transform="rotate(0, 2016.11, 343.655)" x="2016.11" y="343.655">GFP Data</text>
</g>
<polyline clip-path="url(#clip6400)" style="stroke:#3da44d; stroke-width:12; stroke-opacity:1; fill:none" stroke-dasharray="48, 30" points="
  1848.11,386.635 1992.11,386.635 
  "/>
<g clip-path="url(#clip6400)">
<text style="fill:#000000; fill-opacity:1; font-family:Arial,Helvetica Neue,Helvetica,sans-serif; font-size:48px; text-anchor:start;" transform="rotate(0, 2016.11, 404.135)" x="2016.11" y="404.135">Optimized</text>
</g>
</svg>
